<svg width="64" height="64" viewBox="0 0 64 64" fill="none" xmlns="http://www.w3.org/2000/svg">
<rect x="8" y="12" width="48" height="40" rx="6" fill="#3B82F6" fill-opacity="0.1" stroke="#3B82F6" stroke-width="2"/>
<rect x="8" y="12" width="48" height="12" rx="6" fill="#3B82F6" fill-opacity="0.2"/>
<circle cx="14" cy="18" r="2" fill="#EF4444"/>
<circle cx="20" cy="18" r="2" fill="#F59E0B"/>
<circle cx="26" cy="18" r="2" fill="#10B981"/>
<rect x="14" y="30" width="20" height="2" fill="#3B82F6"/>
<rect x="14" y="34" width="16" height="2" fill="#3B82F6"/>
<rect x="14" y="38" width="24" height="2" fill="#3B82F6"/>
<circle cx="44" cy="36" r="8" fill="#10B981" fill-opacity="0.2" stroke="#10B981" stroke-width="2"/>
<circle cx="44" cy="32" r="2" fill="#10B981"/>
<path d="M39 40C39 37.79 41.12 36 44 36C46.88 36 49 37.79 49 40" stroke="#10B981" stroke-width="2" stroke-linecap="round"/>
<rect x="32" y="8" width="24" height="2" fill="#6B7280"/>
<circle cx="50" cy="9" r="1" fill="#6B7280"/>
</svg>