<svg width="44" height="44" viewBox="0 0 44 44" fill="none" xmlns="http://www.w3.org/2000/svg">
<path d="M27.5 3.66675H11C10.0275 3.66675 9.09492 4.05306 8.40728 4.74069C7.71965 5.42832 7.33334 6.36095 7.33334 7.33341V36.6667C7.33334 37.6392 7.71965 38.5718 8.40728 39.2595C9.09492 39.9471 10.0275 40.3334 11 40.3334H33C33.9725 40.3334 34.9051 39.9471 35.5927 39.2595C36.2804 38.5718 36.6667 37.6392 36.6667 36.6667V12.8334L27.5 3.66675Z" stroke="#306BEA" stroke-width="3" stroke-linecap="round" stroke-linejoin="round"/>
<path d="M25.6667 3.66675V11.0001C25.6667 11.9725 26.053 12.9052 26.7406 13.5928C27.4283 14.2804 28.3609 14.6667 29.3334 14.6667H36.6667" stroke="#306BEA" stroke-width="3" stroke-linecap="round" stroke-linejoin="round"/>
<path d="M18.3333 16.5H14.6667" stroke="#306BEA" stroke-width="3" stroke-linecap="round" stroke-linejoin="round"/>
<path d="M29.3333 23.8333H14.6667" stroke="#306BEA" stroke-width="3" stroke-linecap="round" stroke-linejoin="round"/>
<path d="M29.3333 31.1667H14.6667" stroke="#306BEA" stroke-width="3" stroke-linecap="round" stroke-linejoin="round"/>
</svg>
