<svg width="44" height="44" viewBox="0 0 44 44" fill="none" xmlns="http://www.w3.org/2000/svg">
<path d="M22.0001 40.3334C19.464 40.3334 17.0806 39.8522 14.8501 38.8897C12.6195 37.9272 10.6792 36.6209 9.02925 34.9709C7.37925 33.3209 6.073 31.3806 5.1105 29.1501C4.148 26.9195 3.66675 24.5362 3.66675 22.0001C3.66675 19.464 4.148 17.0806 5.1105 14.8501C6.073 12.6195 7.37925 10.6792 9.02925 9.02925C10.6792 7.37925 12.6195 6.073 14.8501 5.1105C17.0806 4.148 19.464 3.66675 22.0001 3.66675C24.5362 3.66675 26.9195 4.148 29.1501 5.1105C31.3806 6.073 33.3209 7.37925 34.9709 9.02925C36.6209 10.6792 37.9272 12.6195 38.8897 14.8501C39.8522 17.0806 40.3334 19.464 40.3334 22.0001C40.3334 24.5362 39.8522 26.9195 38.8897 29.1501C37.9272 31.3806 36.6209 33.3209 34.9709 34.9709C33.3209 36.6209 31.3806 37.9272 29.1501 38.8897C26.9195 39.8522 24.5362 40.3334 22.0001 40.3334ZM22.0001 36.6667C26.0945 36.6667 29.5626 35.2459 32.4042 32.4042C35.2459 29.5626 36.6667 26.0945 36.6667 22.0001C36.6667 17.9056 35.2459 14.4376 32.4042 11.5959C29.5626 8.75425 26.0945 7.33341 22.0001 7.33341C17.9056 7.33341 14.4376 8.75425 11.5959 11.5959C8.75425 14.4376 7.33341 17.9056 7.33341 22.0001C7.33341 26.0945 8.75425 29.5626 11.5959 32.4042C14.4376 35.2459 17.9056 36.6667 22.0001 36.6667ZM22.0001 33.0001C18.9445 33.0001 16.3473 31.9306 14.2084 29.7917C12.0695 27.6529 11.0001 25.0556 11.0001 22.0001C11.0001 18.9445 12.0695 16.3473 14.2084 14.2084C16.3473 12.0695 18.9445 11.0001 22.0001 11.0001C25.0556 11.0001 27.6529 12.0695 29.7917 14.2084C31.9306 16.3473 33.0001 18.9445 33.0001 22.0001C33.0001 25.0556 31.9306 27.6529 29.7917 29.7917C27.6529 31.9306 25.0556 33.0001 22.0001 33.0001ZM22.0001 29.3334C24.0167 29.3334 25.7431 28.6154 27.1792 27.1792C28.6154 25.7431 29.3334 24.0167 29.3334 22.0001C29.3334 19.9834 28.6154 18.257 27.1792 16.8209C25.7431 15.3848 24.0167 14.6667 22.0001 14.6667C19.9834 14.6667 18.257 15.3848 16.8209 16.8209C15.3848 18.257 14.6667 19.9834 14.6667 22.0001C14.6667 24.0167 15.3848 25.7431 16.8209 27.1792C18.257 28.6154 19.9834 29.3334 22.0001 29.3334ZM22.0001 25.6667C20.9917 25.6667 20.1286 25.3077 19.4105 24.5897C18.6924 23.8716 18.3334 23.0084 18.3334 22.0001C18.3334 20.9917 18.6924 20.1286 19.4105 19.4105C20.1286 18.6924 20.9917 18.3334 22.0001 18.3334C23.0084 18.3334 23.8716 18.6924 24.5897 19.4105C25.3077 20.1286 25.6667 20.9917 25.6667 22.0001C25.6667 23.0084 25.3077 23.8716 24.5897 24.5897C23.8716 25.3077 23.0084 25.6667 22.0001 25.6667Z" fill="#306BEA"/>
</svg>
