<svg width="44" height="44" viewBox="0 0 44 44" fill="none" xmlns="http://www.w3.org/2000/svg">
<path d="M7.33337 3.66675V40.3334L11 38.5001L14.6667 40.3334L18.3334 38.5001L22 40.3334L25.6667 38.5001L29.3334 40.3334L33 38.5001L36.6667 40.3334V3.66675L33 5.50008L29.3334 3.66675L25.6667 5.50008L22 3.66675L18.3334 5.50008L14.6667 3.66675L11 5.50008L7.33337 3.66675Z" stroke="#306BEA" stroke-width="3" stroke-linecap="round" stroke-linejoin="round"/>
<path d="M14.6666 12.8333H29.3333" stroke="#306BEA" stroke-width="3" stroke-linecap="round" stroke-linejoin="round"/>
<path d="M22 32.0833L14.6666 27.4999H16.5C18.4449 27.4999 20.3101 26.7273 21.6854 25.352C23.0607 23.9768 23.8333 22.1115 23.8333 20.1666C23.8333 18.2217 23.0607 16.3564 21.6854 14.9811C20.3101 13.6059 18.4449 12.8333 16.5 12.8333" stroke="#306BEA" stroke-width="3" stroke-linecap="round" stroke-linejoin="round"/>
<path d="M14.6666 20.1667H29.3333" stroke="#306BEA" stroke-width="3" stroke-linecap="round" stroke-linejoin="round"/>
</svg>
