<svg width="44" height="44" viewBox="0 0 44 44" fill="none" xmlns="http://www.w3.org/2000/svg">
<path d="M29.3334 20.1667L33 23.8333L40.3334 16.5" stroke="#306BEA" stroke-width="3.66667" stroke-linecap="round" stroke-linejoin="round"/>
<path d="M29.3333 38.5V34.8333C29.3333 32.8884 28.5607 31.0232 27.1854 29.6479C25.8101 28.2726 23.9449 27.5 22 27.5H11C9.05504 27.5 7.18978 28.2726 5.81451 29.6479C4.43924 31.0232 3.66663 32.8884 3.66663 34.8333V38.5" stroke="#306BEA" stroke-width="3.66667" stroke-linecap="round" stroke-linejoin="round"/>
<path d="M16.5 20.1667C20.55 20.1667 23.8333 16.8834 23.8333 12.8333C23.8333 8.78325 20.55 5.5 16.5 5.5C12.4499 5.5 9.16663 8.78325 9.16663 12.8333C9.16663 16.8834 12.4499 20.1667 16.5 20.1667Z" stroke="#306BEA" stroke-width="3.66667" stroke-linecap="round" stroke-linejoin="round"/>
</svg>
