<svg width="44" height="44" viewBox="0 0 44 44" fill="none" xmlns="http://www.w3.org/2000/svg">
<path d="M29.3333 38.5V34.8333C29.3333 32.8884 28.5607 31.0232 27.1854 29.6479C25.8102 28.2726 23.9449 27.5 22 27.5H11C9.05507 27.5 7.18981 28.2726 5.81454 29.6479C4.43927 31.0232 3.66666 32.8884 3.66666 34.8333V38.5" stroke="#306BEA" stroke-width="3.66667" stroke-linecap="round" stroke-linejoin="round"/>
<path d="M29.3333 5.73462C30.9059 6.1423 32.2986 7.0606 33.2928 8.3454C34.2869 9.6302 34.8264 11.2087 34.8264 12.8333C34.8264 14.4578 34.2869 16.0364 33.2928 17.3212C32.2986 18.606 30.9059 19.5243 29.3333 19.932" stroke="#306BEA" stroke-width="3.66667" stroke-linecap="round" stroke-linejoin="round"/>
<path d="M40.3333 38.4999V34.8333C40.3321 33.2084 39.7913 31.63 38.7958 30.3459C37.8004 29.0617 36.4066 28.1445 34.8333 27.7383" stroke="#306BEA" stroke-width="3.66667" stroke-linecap="round" stroke-linejoin="round"/>
<path d="M16.5 20.1667C20.5501 20.1667 23.8333 16.8834 23.8333 12.8333C23.8333 8.78325 20.5501 5.5 16.5 5.5C12.4499 5.5 9.16666 8.78325 9.16666 12.8333C9.16666 16.8834 12.4499 20.1667 16.5 20.1667Z" stroke="#306BEA" stroke-width="3.66667" stroke-linecap="round" stroke-linejoin="round"/>
</svg>
